<svg width="209" height="66" viewBox="0 0 209 66" fill="none" xmlns="http://www.w3.org/2000/svg">
<circle cx="29.9917" cy="36.0083" r="29.9917" fill="#5098CA"/>
<path d="M60.7833 36.5299C60.7833 38.0495 60.8433 39.2892 60.9632 40.2489C61.1232 41.1687 61.4231 41.8885 61.863 42.4083C62.3429 42.8882 62.9827 43.2281 63.7825 43.428C64.6222 43.628 65.7219 43.7479 67.0815 43.7879V46.1873H45.0676V43.7879C46.5472 43.7479 47.7269 43.628 48.6066 43.428C49.5264 43.2281 50.2262 42.8882 50.7061 42.4083C51.2259 41.9285 51.5658 41.2486 51.7258 40.3689C51.8857 39.4891 51.9657 38.3494 51.9657 36.9498V24.4133H29.7118V36.5299C29.7118 38.0495 29.7918 39.2892 29.9518 40.2489C30.1117 41.1687 30.4316 41.8885 30.9115 42.4083C31.3914 42.8882 32.0712 43.2281 32.9509 43.428C33.8707 43.628 35.0704 43.7479 36.55 43.7879V46.1873H14.596V43.7879C15.9556 43.7479 17.0353 43.628 17.8351 43.428C18.6749 43.2281 19.3147 42.8882 19.7546 42.4083C20.1945 41.9285 20.4944 41.2486 20.6543 40.3689C20.8143 39.4891 20.8943 38.3494 20.8943 36.9498V9.23745C20.8943 7.83784 20.8143 6.71815 20.6543 5.87838C20.5344 4.99862 20.2744 4.31881 19.8746 3.83894C19.4747 3.31909 18.8948 2.97918 18.135 2.81922C17.4152 2.61928 16.4555 2.47932 15.2558 2.39934V0H35.9501V2.39934C34.5905 2.43933 33.4908 2.5593 32.651 2.75924C31.8513 2.95918 31.2314 3.31909 30.7915 3.83894C30.3517 4.3588 30.0517 5.0786 29.8918 5.99835C29.7718 6.91809 29.7118 8.13776 29.7118 9.65734V20.6943H51.9657V9.23745C51.9657 7.83784 51.8857 6.71815 51.7258 5.87838C51.5658 4.99862 51.2659 4.31881 50.826 3.83894C50.3861 3.31909 49.7463 2.97918 48.9066 2.81922C48.1068 2.61928 47.0271 2.47932 45.6674 2.39934V0H66.4217V2.39934C65.2221 2.43933 64.2423 2.5593 63.4825 2.75924C62.7627 2.95918 62.2029 3.31909 61.803 3.83894C61.4031 4.3588 61.1232 5.0786 60.9632 5.99835C60.8433 6.91809 60.7833 8.13776 60.7833 9.65734V36.5299Z" fill="#286F6B"/>
<path d="M89.834 29.092C86.475 30.6116 83.9356 32.0312 82.2161 33.3508C80.5366 34.6305 79.6968 35.9701 79.6968 37.3697C79.6968 38.5294 80.0167 39.4491 80.6566 40.1289C81.2964 40.8088 82.0962 41.1487 83.0559 41.1487C84.0156 41.1487 84.9154 40.9887 85.7551 40.6688C86.5949 40.3089 87.3147 39.849 87.9146 39.2892C88.5144 38.7293 88.9743 38.0695 89.2942 37.3097C89.6541 36.5099 89.834 35.6702 89.834 34.7904V29.092ZM89.834 25.9129V23.3936C89.834 21.0742 89.4141 19.3947 88.5744 18.3549C87.7746 17.2752 86.5149 16.7354 84.7954 16.7354C83.6357 16.7354 82.756 17.0553 82.1561 17.6951C81.5563 18.295 80.9965 19.3147 80.4766 20.7543C80.1167 21.754 79.5968 22.5338 78.917 23.0936C78.2772 23.6535 77.3775 23.9334 76.2178 23.9334C75.0981 23.9334 74.2383 23.5935 73.6385 22.9137C73.0387 22.2339 72.7387 21.2741 72.7387 20.0345C72.7387 18.115 73.7784 16.5954 75.8579 15.4757C77.9773 14.356 81.1564 13.7962 85.3952 13.7962C89.874 13.7962 93.0731 14.616 94.9926 16.2555C96.9121 17.8551 97.8718 20.5543 97.8718 24.3533V37.4897C97.8718 40.8887 98.5516 42.5883 99.9113 42.5883C100.671 42.5883 101.371 42.3283 102.011 41.8085L102.91 43.548C102.351 44.5477 101.471 45.3475 100.271 45.9473C99.1115 46.5072 97.7918 46.7871 96.3122 46.7871C94.4727 46.7871 93.0731 46.2273 92.1134 45.1076C91.1537 43.9879 90.6738 42.4083 90.6738 40.3689H90.3739C89.2142 42.4483 87.7146 44.0279 85.8751 45.1076C84.0356 46.1873 81.9362 46.7271 79.5769 46.7271C77.0575 46.7271 75.0381 46.0273 73.5185 44.6277C71.9989 43.1881 71.2391 41.3286 71.2391 39.0492C71.2391 37.2897 72.0189 35.6502 73.5785 34.1306C75.1381 32.571 77.7374 31.0514 81.3764 29.5719L89.834 25.9129Z" fill="#286F6B"/>
<path d="M108.742 46.1873H106.882V35.2703H109.402C110.082 38.1495 111.061 40.2489 112.341 41.5685C113.621 42.8882 115.28 43.548 117.32 43.548C118.799 43.548 119.939 43.2481 120.739 42.6482C121.578 42.0084 121.998 41.1487 121.998 40.069C121.998 38.9493 121.498 37.8696 120.499 36.8299C119.499 35.7502 117.879 34.6105 115.64 33.4108C112.601 31.7712 110.421 30.1517 109.102 28.5521C107.782 26.9126 107.122 25.0731 107.122 23.0337C107.122 21.714 107.362 20.4944 107.842 19.3747C108.362 18.215 109.042 17.2153 109.882 16.3755C110.761 15.5357 111.801 14.8959 113.001 14.456C114.2 13.9761 115.5 13.7362 116.9 13.7362C118.139 13.7362 119.359 13.9162 120.559 14.2761C121.798 14.636 122.878 15.1358 123.798 15.7757L124.877 14.3361H126.437V23.3936H124.098C123.178 21.1142 122.218 19.4746 121.219 18.4749C120.259 17.4752 119.079 16.9753 117.679 16.9753C116.56 16.9753 115.66 17.2752 114.98 17.8751C114.34 18.4749 114.02 19.2747 114.02 20.2744C114.02 21.3941 114.5 22.4538 115.46 23.4535C116.46 24.4533 118.099 25.553 120.379 26.7526C121.978 27.6324 123.358 28.4922 124.518 29.3319C125.677 30.1717 126.617 31.0315 127.337 31.9112C128.057 32.751 128.576 33.6507 128.896 34.6105C129.256 35.5302 129.436 36.5299 129.436 37.6096C129.436 39.0093 129.176 40.2689 128.656 41.3886C128.137 42.5083 127.397 43.468 126.437 44.2678C125.477 45.0676 124.318 45.6874 122.958 46.1273C121.638 46.5672 120.159 46.7871 118.519 46.7871C116.8 46.7871 115.2 46.5672 113.721 46.1273C112.241 45.6474 111.021 44.9676 110.062 44.0879L108.742 46.1873Z" fill="#286F6B"/>
<path d="M152.219 29.092C148.86 30.6116 146.321 32.0312 144.601 33.3508C142.922 34.6305 142.082 35.9701 142.082 37.3697C142.082 38.5294 142.402 39.4491 143.042 40.1289C143.682 40.8088 144.481 41.1487 145.441 41.1487C146.401 41.1487 147.301 40.9887 148.14 40.6688C148.98 40.3089 149.7 39.849 150.3 39.2892C150.9 38.7293 151.359 38.0695 151.679 37.3097C152.039 36.5099 152.219 35.6702 152.219 34.7904V29.092ZM152.219 25.9129V23.3936C152.219 21.0742 151.799 19.3947 150.96 18.3549C150.16 17.2752 148.9 16.7354 147.181 16.7354C146.021 16.7354 145.141 17.0553 144.541 17.6951C143.941 18.295 143.382 19.3147 142.862 20.7543C142.502 21.754 141.982 22.5338 141.302 23.0936C140.662 23.6535 139.763 23.9334 138.603 23.9334C137.483 23.9334 136.623 23.5935 136.024 22.9137C135.424 22.2339 135.124 21.2741 135.124 20.0345C135.124 18.115 136.164 16.5954 138.243 15.4757C140.362 14.356 143.542 13.7962 147.78 13.7962C152.259 13.7962 155.458 14.616 157.378 16.2555C159.297 17.8551 160.257 20.5543 160.257 24.3533V37.4897C160.257 40.8887 160.937 42.5883 162.296 42.5883C163.056 42.5883 163.756 42.3283 164.396 41.8085L165.296 43.548C164.736 44.5477 163.856 45.3475 162.656 45.9473C161.497 46.5072 160.177 46.7871 158.697 46.7871C156.858 46.7871 155.458 46.2273 154.499 45.1076C153.539 43.9879 153.059 42.4083 153.059 40.3689H152.759C151.599 42.4483 150.1 44.0279 148.26 45.1076C146.421 46.1873 144.321 46.7271 141.962 46.7271C139.443 46.7271 137.423 46.0273 135.904 44.6277C134.384 43.1881 133.624 41.3286 133.624 39.0492C133.624 37.2897 134.404 35.6502 135.964 34.1306C137.523 32.571 140.123 31.0514 143.762 29.5719L152.219 25.9129Z" fill="#286F6B"/>
<path d="M181.444 36.41C181.444 38.0495 181.484 39.3492 181.564 40.3089C181.684 41.2286 181.904 41.9484 182.224 42.4683C182.584 42.9482 183.104 43.2681 183.784 43.428C184.503 43.588 185.463 43.708 186.663 43.7879V46.1873H167.768V43.7879C168.928 43.708 169.847 43.588 170.527 43.428C171.247 43.2681 171.787 42.9482 172.147 42.4683C172.547 41.9884 172.807 41.3086 172.927 40.4289C173.047 39.5491 173.107 38.3494 173.107 36.8299V29.3319C173.107 26.9726 173.067 25.0731 172.987 23.6335C172.907 22.1539 172.807 21.1542 172.687 20.6343C172.567 20.1145 172.407 19.6946 172.207 19.3747C172.007 19.0148 171.707 18.7548 171.307 18.5949C170.907 18.3949 170.407 18.275 169.807 18.235C169.208 18.155 168.448 18.115 167.528 18.115V16.0756L179.105 13.7962L179.885 19.0747H180.125C181.444 17.3952 183.004 16.0956 184.803 15.1758C186.603 14.2561 188.582 13.7962 190.742 13.7962C193.301 13.7962 195.36 14.1561 196.92 14.8759C198.52 15.5557 199.939 16.7154 201.179 18.3549C201.859 19.2747 202.458 20.4744 202.978 21.954C203.498 23.3936 203.758 25.393 203.758 27.9523V36.41C203.758 38.0495 203.798 39.3492 203.878 40.3089C203.998 41.2286 204.218 41.9484 204.538 42.4683C204.898 42.9482 205.418 43.2681 206.097 43.428C206.777 43.588 207.697 43.708 208.857 43.7879V46.1873H190.082V43.7879C191.282 43.7479 192.221 43.648 192.901 43.488C193.621 43.2881 194.161 42.9482 194.521 42.4683C194.881 41.9884 195.12 41.3086 195.24 40.4289C195.36 39.5091 195.42 38.3094 195.42 36.8299V28.6721C195.42 26.6327 195.3 24.9131 195.06 23.5135C194.821 22.1139 194.421 20.9942 193.861 20.1544C193.341 19.2747 192.641 18.6549 191.761 18.295C190.882 17.8951 189.782 17.6951 188.462 17.6951C187.183 17.6951 186.083 18.055 185.163 18.7748C184.243 19.4946 183.444 20.4944 182.764 21.774C182.404 22.4938 182.084 23.4335 181.804 24.5932C181.564 25.7129 181.444 26.8926 181.444 28.1322V36.41Z" fill="#286F6B"/>
</svg>
