<svg width="50" height="50" viewBox="0 0 50 50" fill="none" xmlns="http://www.w3.org/2000/svg">
<g clip-path="url(#clip0_18_61)">
<path d="M25 6.25C14.6484 6.25 6.25 14.6484 6.25 25C6.25 35.3516 14.6484 43.75 25 43.75C26.7285 43.75 28.125 45.1465 28.125 46.875C28.125 48.6035 26.7285 50 25 50C11.1914 50 0 38.8086 0 25C0 11.1914 11.1914 0 25 0C38.8086 0 50 11.1914 50 25V28.125C50 33.3008 45.8008 37.5 40.625 37.5C37.7637 37.5 35.1953 36.2109 33.4766 34.1895C31.25 36.2402 28.2715 37.5 25 37.5C18.0957 37.5 12.5 31.9043 12.5 25C12.5 18.0957 18.0957 12.5 25 12.5C27.7246 12.5 30.2441 13.3691 32.2949 14.8535C32.8516 14.3652 33.5742 14.0625 34.375 14.0625C36.1035 14.0625 37.5 15.459 37.5 17.1875V25V28.125C37.5 29.8535 38.8965 31.25 40.625 31.25C42.3535 31.25 43.75 29.8535 43.75 28.125V25C43.75 14.6484 35.3516 6.25 25 6.25ZM31.25 25C31.25 21.5527 28.4473 18.75 25 18.75C21.5527 18.75 18.75 21.5527 18.75 25C18.75 28.4473 21.5527 31.25 25 31.25C28.4473 31.25 31.25 28.4473 31.25 25Z" fill="#286F6B"/>
</g>
<defs>
<clipPath id="clip0_18_61">
<rect width="50" height="50" fill="white"/>
</clipPath>
</defs>
</svg>
