<svg width="15" height="10" viewBox="0 0 15 10" fill="none" xmlns="http://www.w3.org/2000/svg">
<path fill-rule="evenodd" clip-rule="evenodd" d="M0 1C0 0.447715 0.447715 0 1 0H14C14.5523 0 15 0.447715 15 1C15 1.55228 14.5523 2 14 2H1C0.447715 2 0 1.55228 0 1Z" fill="#282828"/>
<path fill-rule="evenodd" clip-rule="evenodd" d="M0 5C0 4.44772 0.447715 4 1 4H14C14.5523 4 15 4.44772 15 5C15 5.55228 14.5523 6 14 6H1C0.447715 6 0 5.55228 0 5Z" fill="#282828"/>
<path fill-rule="evenodd" clip-rule="evenodd" d="M0 9C0 8.44772 0.447715 8 1 8H14C14.5523 8 15 8.44772 15 9C15 9.55228 14.5523 10 14 10H1C0.447715 10 0 9.55228 0 9Z" fill="#282828"/>
</svg>
