<svg width="45" height="50" viewBox="0 0 45 50" fill="none" xmlns="http://www.w3.org/2000/svg">
<g clip-path="url(#clip0_18_67)">
<path d="M10.293 43.75H1.22266V14.541H10.293V43.75ZM5.75293 10.5566C2.85254 10.5566 0.5 8.1543 0.5 5.25391C0.5 3.86074 1.05343 2.52464 2.03855 1.53952C3.02366 0.554409 4.35977 0.000976562 5.75293 0.000976562C7.14609 0.000976562 8.4822 0.554409 9.46731 1.53952C10.4524 2.52464 11.0059 3.86074 11.0059 5.25391C11.0059 8.1543 8.65234 10.5566 5.75293 10.5566ZM44.2402 43.75H35.1895V29.5312C35.1895 26.1426 35.1211 21.7969 30.4736 21.7969C25.7578 21.7969 25.0352 25.4785 25.0352 29.2871V43.75H15.9746V14.541H24.6738V18.5254H24.8008C26.0117 16.2305 28.9697 13.8086 33.3828 13.8086C42.5625 13.8086 44.25 19.8535 44.25 27.7051V43.75H44.2402Z" fill="#286F6B"/>
</g>
<defs>
<clipPath id="clip0_18_67">
<rect width="43.75" height="50" fill="white" transform="translate(0.5)"/>
</clipPath>
</defs>
</svg>
