<svg width="44" height="50" viewBox="0 0 44 50" fill="none" xmlns="http://www.w3.org/2000/svg">
<g clip-path="url(#clip0_18_63)">
<path d="M37.1973 9.48242C33.1055 5.38086 27.6562 3.125 21.8652 3.125C9.91211 3.125 0.185547 12.8516 0.185547 24.8047C0.185547 28.623 1.18164 32.3535 3.07617 35.6445L0 46.875L11.4941 43.8574C14.6582 45.5859 18.2227 46.4941 21.8555 46.4941H21.8652C33.8086 46.4941 43.75 36.7676 43.75 24.8145C43.75 19.0234 41.2891 13.584 37.1973 9.48242ZM21.8652 42.8418C18.623 42.8418 15.4492 41.9727 12.6855 40.332L12.0312 39.9414L5.21484 41.7285L7.03125 35.0781L6.60156 34.3945C4.79492 31.5234 3.84766 28.2129 3.84766 24.8047C3.84766 14.873 11.9336 6.78711 21.875 6.78711C26.6895 6.78711 31.2109 8.66211 34.6094 12.0703C38.0078 15.4785 40.0977 20 40.0879 24.8145C40.0879 34.7559 31.7969 42.8418 21.8652 42.8418ZM31.748 29.3457C31.2109 29.0723 28.5449 27.7637 28.0469 27.5879C27.5488 27.4023 27.1875 27.3145 26.8262 27.8613C26.4648 28.4082 25.4297 29.6191 25.1074 29.9902C24.7949 30.3516 24.4727 30.4004 23.9355 30.127C20.752 28.5352 18.6621 27.2852 16.5625 23.6816C16.0059 22.7246 17.1191 22.793 18.1543 20.7227C18.3301 20.3613 18.2422 20.0488 18.1055 19.7754C17.9688 19.502 16.8848 16.8359 16.4355 15.752C15.9961 14.6973 15.5469 14.8438 15.2148 14.8242C14.9023 14.8047 14.541 14.8047 14.1797 14.8047C13.8184 14.8047 13.2324 14.9414 12.7344 15.4785C12.2363 16.0254 10.8398 17.334 10.8398 20C10.8398 22.666 12.7832 25.2441 13.0469 25.6055C13.3203 25.9668 16.8652 31.4355 22.3047 33.7891C25.7422 35.2734 27.0898 35.4004 28.8086 35.1465C29.8535 34.9902 32.0117 33.8379 32.4609 32.5684C32.9102 31.2988 32.9102 30.2148 32.7734 29.9902C32.6465 29.7461 32.2852 29.6094 31.748 29.3457Z" fill="#286F6B"/>
</g>
<defs>
<clipPath id="clip0_18_63">
<rect width="43.75" height="50" fill="white"/>
</clipPath>
</defs>
</svg>
