<svg width="476" height="273" viewBox="0 0 476 273" fill="none" xmlns="http://www.w3.org/2000/svg">
<path fill-rule="evenodd" clip-rule="evenodd" d="M444.028 187.3C450.623 179.377 462.806 169.191 471.892 162.286L475.643 167.222C466.6 174.095 454.905 183.924 448.792 191.267C447.271 193.094 446.203 194.641 445.599 195.857C445.337 196.384 445.21 196.752 445.147 196.99C445.252 197.014 445.384 197.04 445.547 197.063C446.723 197.233 448.757 197.151 451.958 196.521C455.458 195.832 458.463 195.689 460.881 196.288C463.462 196.927 465.474 198.463 466.376 200.926C467.187 203.145 466.901 205.61 466.266 207.855C465.612 210.164 464.465 212.669 463.042 215.225C457.387 225.382 446.298 238.213 437.922 246.862L433.468 242.549C441.772 233.975 452.384 221.624 457.625 212.21C458.926 209.873 459.827 207.836 460.3 206.166C460.791 204.432 460.708 203.48 460.553 203.057C460.488 202.879 460.363 202.547 459.391 202.306C458.255 202.025 456.289 201.988 453.154 202.605C449.72 203.28 446.873 203.519 444.66 203.199C442.451 202.88 440.081 201.841 439.194 199.278C438.429 197.069 439.207 194.787 440.047 193.096C440.96 191.261 442.371 189.289 444.028 187.3ZM444.777 196.859C444.779 196.858 444.796 196.866 444.822 196.887C444.787 196.871 444.775 196.861 444.777 196.859Z" fill="#EFFFFB"/>
<path fill-rule="evenodd" clip-rule="evenodd" d="M379.32 23.9283C387.493 18.3193 398.975 16.8064 406.874 16.9944L406.726 23.1927C399.396 23.0181 389.449 24.4966 382.828 29.0402C379.602 31.2545 377.268 34.12 376.261 37.8329C375.248 41.5738 375.477 46.5669 378.133 53.2073C379.501 56.6284 380.773 59.1241 381.925 60.8784C383.097 62.6638 384.021 63.4911 384.614 63.8317C385.084 64.1018 385.266 64.0394 385.396 63.9928C385.679 63.8915 386.231 63.5463 386.973 62.589C388.468 60.6609 389.917 57.3305 391.165 53.2268C392.389 49.2058 393.33 44.751 393.948 40.8235L400.072 41.787C399.421 45.9272 398.423 50.6732 397.097 55.0315C395.796 59.3071 394.085 63.5346 391.873 66.3881C390.761 67.8217 389.322 69.1733 387.485 69.8305C385.494 70.5424 383.427 70.3001 381.525 69.2076C379.747 68.1857 378.177 66.4677 376.742 64.2808C375.286 62.0629 373.836 59.1594 372.376 55.5099C369.376 48.0092 368.816 41.6033 370.277 36.2114C371.746 30.7915 375.15 26.7903 379.32 23.9283Z" fill="#EFFFFB"/>
<path fill-rule="evenodd" clip-rule="evenodd" d="M56.6231 37.6151C56.3735 26.8697 58.9493 12.7065 61.3503 3.01688L67.3683 4.50807C65.0105 14.0233 62.591 27.5533 62.8214 37.4712C62.8785 39.9294 63.0975 42.0791 63.4872 43.8428C63.8832 45.6355 64.4144 46.8373 64.9642 47.5637C65.4529 48.2094 65.9145 48.4436 66.4463 48.5056C66.706 48.536 67.0465 48.5311 67.4793 48.4531C66.61 45.967 66.0663 43.8388 65.7924 42.0298C65.3603 39.1761 65.5126 36.5684 66.7118 34.6148C68.1061 32.3434 70.4546 31.6507 72.5714 31.9963C74.4977 32.3108 76.2482 33.4367 77.5563 34.7877C78.8967 36.172 80.0082 38.0288 80.4725 40.164C80.9471 42.3464 80.7296 44.7744 79.4481 47.1058C78.5502 48.7392 77.1929 50.2136 75.3818 51.5027C77.2657 55.7121 80.0139 60.9461 83.9119 67.3772L78.6098 70.5909C74.7292 64.1884 71.8638 58.7891 69.8239 54.2613C68.4346 54.6637 67.0635 54.8198 65.7274 54.6638C63.2827 54.3784 61.3778 53.0984 60.0207 51.3056C58.7247 49.5934 57.9307 47.4324 57.4332 45.1804C56.9292 42.8995 56.686 40.3228 56.6231 37.6151ZM73.0025 45.4347C73.4714 44.9649 73.7948 44.5194 74.0148 44.1192C74.5237 43.1934 74.5939 42.3084 74.4141 41.4814C74.224 40.6073 73.7393 39.7585 73.1022 39.1006C72.6276 38.6105 72.1838 38.3407 71.8758 38.2106C71.7745 38.6504 71.6854 39.5355 71.9225 41.1015C72.1019 42.2862 72.4463 43.7211 73.0025 45.4347Z" fill="#EFFFFB"/>
<path fill-rule="evenodd" clip-rule="evenodd" d="M41.0762 207.334C36.519 209.537 30.3241 211.773 22.05 213.98C14.4749 216 10.3729 219.389 8.29208 223.196C6.17341 227.072 5.84739 231.931 6.95387 237.432C9.18499 248.524 16.9686 260.831 23.6327 268.828L18.8697 272.797C11.9366 264.477 3.40354 251.222 0.875619 238.654C-0.397419 232.325 -0.213542 225.83 2.85174 220.222C5.95491 214.545 11.7109 210.32 20.4525 207.989C28.4951 205.844 34.2884 203.729 38.3768 201.752C42.5044 199.756 44.6927 197.996 45.756 196.671C46.7444 195.439 46.6335 194.781 46.5631 194.527C46.4447 194.1 46.0234 193.494 45.1377 192.924L48.4904 187.709C50.1429 188.771 51.8745 190.477 52.5379 192.871C53.2494 195.438 52.5492 198.112 50.5916 200.551C48.7088 202.897 45.5942 205.149 41.0762 207.334Z" fill="#EFFFFB"/>
</svg>
